<mxfile host="Electron" agent="Mozilla/5.0 (Windows NT 10.0; Win64; x64) AppleWebKit/537.36 (KHTML, like Gecko) draw.io/24.7.17 Chrome/128.0.6613.36 Electron/32.0.1 Safari/537.36" version="24.7.17">
  <diagram name="Página-1" id="p9K0cnw3e_TJKJsx_78d">
    <mxGraphModel dx="1434" dy="836" grid="1" gridSize="10" guides="1" tooltips="1" connect="1" arrows="1" fold="1" page="1" pageScale="1" pageWidth="827" pageHeight="1169" math="0" shadow="0">
      <root>
        <mxCell id="0" />
        <mxCell id="1" parent="0" />
        <mxCell id="oxEUmUbdFnQbrGS5UrGR-6" value="" style="rounded=0;whiteSpace=wrap;html=1;" vertex="1" parent="1">
          <mxGeometry x="120" y="40" width="1160" height="680" as="geometry" />
        </mxCell>
        <mxCell id="YERbZWsGb_3LJ_n3Qa9_-2" value="" style="rounded=1;whiteSpace=wrap;html=1;" parent="1" vertex="1">
          <mxGeometry x="180" y="170" width="130" height="360" as="geometry" />
        </mxCell>
        <mxCell id="YERbZWsGb_3LJ_n3Qa9_-6" value="" style="rounded=0;whiteSpace=wrap;html=1;fillColor=#bac8d3;strokeColor=#23445d;" parent="1" vertex="1">
          <mxGeometry x="340" y="170" width="190" height="360" as="geometry" />
        </mxCell>
        <mxCell id="YERbZWsGb_3LJ_n3Qa9_-7" value="" style="rounded=0;whiteSpace=wrap;html=1;fillColor=#bac8d3;strokeColor=#23445d;" parent="1" vertex="1">
          <mxGeometry x="560" y="170" width="200" height="360" as="geometry" />
        </mxCell>
        <mxCell id="YERbZWsGb_3LJ_n3Qa9_-8" value="" style="rounded=0;whiteSpace=wrap;html=1;" parent="1" vertex="1">
          <mxGeometry x="790" y="170" width="260" height="360" as="geometry" />
        </mxCell>
        <mxCell id="YERbZWsGb_3LJ_n3Qa9_-60" style="edgeStyle=orthogonalEdgeStyle;rounded=0;orthogonalLoop=1;jettySize=auto;html=1;entryX=1;entryY=0.75;entryDx=0;entryDy=0;" parent="1" source="YERbZWsGb_3LJ_n3Qa9_-9" target="YERbZWsGb_3LJ_n3Qa9_-11" edge="1">
          <mxGeometry relative="1" as="geometry">
            <Array as="points">
              <mxPoint x="1160" y="608" />
            </Array>
          </mxGeometry>
        </mxCell>
        <mxCell id="YERbZWsGb_3LJ_n3Qa9_-9" value="" style="rounded=1;whiteSpace=wrap;html=1;" parent="1" vertex="1">
          <mxGeometry x="1090" y="170" width="130" height="360" as="geometry" />
        </mxCell>
        <mxCell id="YERbZWsGb_3LJ_n3Qa9_-10" value="" style="rounded=1;whiteSpace=wrap;html=1;" parent="1" vertex="1">
          <mxGeometry x="560" y="80" width="200" height="60" as="geometry" />
        </mxCell>
        <mxCell id="YERbZWsGb_3LJ_n3Qa9_-59" style="edgeStyle=orthogonalEdgeStyle;rounded=0;orthogonalLoop=1;jettySize=auto;html=1;" parent="1" source="YERbZWsGb_3LJ_n3Qa9_-11" target="YERbZWsGb_3LJ_n3Qa9_-9" edge="1">
          <mxGeometry relative="1" as="geometry">
            <Array as="points">
              <mxPoint x="1138" y="590" />
            </Array>
          </mxGeometry>
        </mxCell>
        <mxCell id="YERbZWsGb_3LJ_n3Qa9_-11" value="" style="rounded=0;whiteSpace=wrap;html=1;fillColor=#bac8d3;strokeColor=#23445d;" parent="1" vertex="1">
          <mxGeometry x="340" y="570" width="710" height="50" as="geometry" />
        </mxCell>
        <mxCell id="YERbZWsGb_3LJ_n3Qa9_-12" value="Web browser" style="text;html=1;strokeColor=none;fillColor=none;align=center;verticalAlign=middle;whiteSpace=wrap;rounded=0;" parent="1" vertex="1">
          <mxGeometry x="190" y="180" width="110" height="30" as="geometry" />
        </mxCell>
        <mxCell id="YERbZWsGb_3LJ_n3Qa9_-13" value="Capa de presentación" style="text;html=1;strokeColor=none;fillColor=none;align=center;verticalAlign=middle;whiteSpace=wrap;rounded=0;" parent="1" vertex="1">
          <mxGeometry x="365" y="180" width="145" height="30" as="geometry" />
        </mxCell>
        <mxCell id="YERbZWsGb_3LJ_n3Qa9_-14" value="Capa de servicios" style="text;html=1;strokeColor=none;fillColor=none;align=center;verticalAlign=middle;whiteSpace=wrap;rounded=0;" parent="1" vertex="1">
          <mxGeometry x="589" y="180" width="145" height="30" as="geometry" />
        </mxCell>
        <mxCell id="YERbZWsGb_3LJ_n3Qa9_-15" value="Otros sistemas" style="text;html=1;strokeColor=none;fillColor=none;align=center;verticalAlign=middle;whiteSpace=wrap;rounded=0;" parent="1" vertex="1">
          <mxGeometry x="587" y="82" width="145" height="30" as="geometry" />
        </mxCell>
        <mxCell id="YERbZWsGb_3LJ_n3Qa9_-16" value="Capa de Integración" style="text;html=1;strokeColor=none;fillColor=none;align=center;verticalAlign=middle;whiteSpace=wrap;rounded=0;" parent="1" vertex="1">
          <mxGeometry x="848" y="178" width="145" height="30" as="geometry" />
        </mxCell>
        <mxCell id="YERbZWsGb_3LJ_n3Qa9_-18" value="" style="rounded=0;whiteSpace=wrap;html=1;" parent="1" vertex="1">
          <mxGeometry x="810" y="230" width="220" height="250" as="geometry" />
        </mxCell>
        <mxCell id="YERbZWsGb_3LJ_n3Qa9_-19" value="JSE 6" style="text;html=1;strokeColor=none;fillColor=none;align=center;verticalAlign=middle;whiteSpace=wrap;rounded=0;" parent="1" vertex="1">
          <mxGeometry x="802" y="228" width="61" height="30" as="geometry" />
        </mxCell>
        <mxCell id="YERbZWsGb_3LJ_n3Qa9_-21" value="" style="rounded=0;whiteSpace=wrap;html=1;" parent="1" vertex="1">
          <mxGeometry x="880" y="280" width="90" height="20" as="geometry" />
        </mxCell>
        <mxCell id="YERbZWsGb_3LJ_n3Qa9_-22" value="" style="rounded=0;whiteSpace=wrap;html=1;" parent="1" vertex="1">
          <mxGeometry x="880" y="325" width="90" height="20" as="geometry" />
        </mxCell>
        <mxCell id="YERbZWsGb_3LJ_n3Qa9_-23" value="" style="rounded=0;whiteSpace=wrap;html=1;" parent="1" vertex="1">
          <mxGeometry x="880" y="366" width="90" height="30" as="geometry" />
        </mxCell>
        <mxCell id="YERbZWsGb_3LJ_n3Qa9_-32" style="edgeStyle=orthogonalEdgeStyle;rounded=0;orthogonalLoop=1;jettySize=auto;html=1;" parent="1" edge="1">
          <mxGeometry relative="1" as="geometry">
            <mxPoint x="880" y="294" as="sourcePoint" />
            <mxPoint x="880" y="383" as="targetPoint" />
            <Array as="points">
              <mxPoint x="860" y="294" />
              <mxPoint x="860" y="383" />
              <mxPoint x="880" y="383" />
            </Array>
          </mxGeometry>
        </mxCell>
        <mxCell id="YERbZWsGb_3LJ_n3Qa9_-25" value="Repository" style="text;html=1;strokeColor=none;fillColor=none;align=center;verticalAlign=middle;whiteSpace=wrap;rounded=0;" parent="1" vertex="1">
          <mxGeometry x="894.5" y="280" width="61" height="21" as="geometry" />
        </mxCell>
        <mxCell id="YERbZWsGb_3LJ_n3Qa9_-27" value="Helper" style="text;html=1;strokeColor=none;fillColor=none;align=center;verticalAlign=middle;whiteSpace=wrap;rounded=0;" parent="1" vertex="1">
          <mxGeometry x="895.5" y="324" width="61" height="21" as="geometry" />
        </mxCell>
        <mxCell id="YERbZWsGb_3LJ_n3Qa9_-28" value="Business domain" style="text;html=1;strokeColor=none;fillColor=none;align=center;verticalAlign=middle;whiteSpace=wrap;rounded=0;" parent="1" vertex="1">
          <mxGeometry x="896.5" y="370" width="61" height="21" as="geometry" />
        </mxCell>
        <mxCell id="YERbZWsGb_3LJ_n3Qa9_-30" value="" style="rounded=0;whiteSpace=wrap;html=1;" parent="1" vertex="1">
          <mxGeometry x="880" y="415" width="90" height="30" as="geometry" />
        </mxCell>
        <mxCell id="YERbZWsGb_3LJ_n3Qa9_-31" value="Spring Chanel" style="text;html=1;strokeColor=none;fillColor=none;align=center;verticalAlign=middle;whiteSpace=wrap;rounded=0;" parent="1" vertex="1">
          <mxGeometry x="896.5" y="419" width="61" height="21" as="geometry" />
        </mxCell>
        <mxCell id="YERbZWsGb_3LJ_n3Qa9_-36" value="" style="endArrow=classic;html=1;rounded=0;" parent="1" edge="1">
          <mxGeometry width="50" height="50" relative="1" as="geometry">
            <mxPoint x="926" y="300" as="sourcePoint" />
            <mxPoint x="926" y="326" as="targetPoint" />
          </mxGeometry>
        </mxCell>
        <mxCell id="YERbZWsGb_3LJ_n3Qa9_-38" value="" style="endArrow=classic;html=1;rounded=0;exitX=0.523;exitY=1.017;exitDx=0;exitDy=0;exitPerimeter=0;entryX=0.525;entryY=-0.019;entryDx=0;entryDy=0;entryPerimeter=0;" parent="1" source="YERbZWsGb_3LJ_n3Qa9_-22" target="YERbZWsGb_3LJ_n3Qa9_-23" edge="1">
          <mxGeometry width="50" height="50" relative="1" as="geometry">
            <mxPoint x="927" y="350" as="sourcePoint" />
            <mxPoint x="927" y="367" as="targetPoint" />
          </mxGeometry>
        </mxCell>
        <mxCell id="YERbZWsGb_3LJ_n3Qa9_-42" value="" style="endArrow=classic;html=1;rounded=0;entryX=0.5;entryY=1;entryDx=0;entryDy=0;exitX=0.5;exitY=0;exitDx=0;exitDy=0;" parent="1" edge="1">
          <mxGeometry width="50" height="50" relative="1" as="geometry">
            <mxPoint x="926" y="415" as="sourcePoint" />
            <mxPoint x="926" y="396.00000000000006" as="targetPoint" />
          </mxGeometry>
        </mxCell>
        <mxCell id="YERbZWsGb_3LJ_n3Qa9_-45" value="" style="endArrow=classicThin;dashed=1;html=1;rounded=0;entryX=0.75;entryY=1;entryDx=0;entryDy=0;startArrow=none;startFill=0;endFill=1;" parent="1" edge="1">
          <mxGeometry width="50" height="50" relative="1" as="geometry">
            <mxPoint x="947" y="325" as="sourcePoint" />
            <mxPoint x="947.2500000000001" y="301" as="targetPoint" />
          </mxGeometry>
        </mxCell>
        <mxCell id="YERbZWsGb_3LJ_n3Qa9_-47" value="" style="endArrow=classic;html=1;rounded=0;entryX=-0.066;entryY=0.095;entryDx=0;entryDy=0;entryPerimeter=0;" parent="1" edge="1">
          <mxGeometry width="50" height="50" relative="1" as="geometry">
            <mxPoint x="739" y="283.57" as="sourcePoint" />
            <mxPoint x="879.06" y="282.9" as="targetPoint" />
          </mxGeometry>
        </mxCell>
        <mxCell id="YERbZWsGb_3LJ_n3Qa9_-48" value="" style="endArrow=classic;html=1;rounded=0;" parent="1" edge="1">
          <mxGeometry width="50" height="50" relative="1" as="geometry">
            <mxPoint x="971" y="282.57" as="sourcePoint" />
            <mxPoint x="1110" y="282" as="targetPoint" />
          </mxGeometry>
        </mxCell>
        <mxCell id="YERbZWsGb_3LJ_n3Qa9_-49" value="" style="endArrow=classic;html=1;rounded=0;" parent="1" edge="1">
          <mxGeometry width="50" height="50" relative="1" as="geometry">
            <mxPoint x="971" y="425.57" as="sourcePoint" />
            <mxPoint x="1110" y="425" as="targetPoint" />
          </mxGeometry>
        </mxCell>
        <mxCell id="YERbZWsGb_3LJ_n3Qa9_-50" value="" style="endArrow=classic;html=1;rounded=0;" parent="1" edge="1">
          <mxGeometry width="50" height="50" relative="1" as="geometry">
            <mxPoint x="738" y="426.57" as="sourcePoint" />
            <mxPoint x="877" y="426" as="targetPoint" />
          </mxGeometry>
        </mxCell>
        <mxCell id="YERbZWsGb_3LJ_n3Qa9_-51" value="" style="endArrow=classic;html=1;rounded=0;" parent="1" edge="1">
          <mxGeometry width="50" height="50" relative="1" as="geometry">
            <mxPoint x="515" y="314.57" as="sourcePoint" />
            <mxPoint x="574" y="314" as="targetPoint" />
          </mxGeometry>
        </mxCell>
        <mxCell id="YERbZWsGb_3LJ_n3Qa9_-52" value="" style="endArrow=classic;html=1;rounded=0;" parent="1" edge="1">
          <mxGeometry width="50" height="50" relative="1" as="geometry">
            <mxPoint x="300" y="314.57" as="sourcePoint" />
            <mxPoint x="359" y="314" as="targetPoint" />
          </mxGeometry>
        </mxCell>
        <mxCell id="YERbZWsGb_3LJ_n3Qa9_-55" value="" style="endArrow=classic;html=1;rounded=0;" parent="1" edge="1">
          <mxGeometry width="50" height="50" relative="1" as="geometry">
            <mxPoint x="420" y="530" as="sourcePoint" />
            <mxPoint x="420" y="590" as="targetPoint" />
          </mxGeometry>
        </mxCell>
        <mxCell id="YERbZWsGb_3LJ_n3Qa9_-56" value="" style="endArrow=classic;html=1;rounded=0;" parent="1" edge="1">
          <mxGeometry width="50" height="50" relative="1" as="geometry">
            <mxPoint x="630" y="530" as="sourcePoint" />
            <mxPoint x="630" y="590" as="targetPoint" />
          </mxGeometry>
        </mxCell>
        <mxCell id="YERbZWsGb_3LJ_n3Qa9_-57" value="" style="endArrow=classic;html=1;rounded=0;exitX=0.41;exitY=0.972;exitDx=0;exitDy=0;exitPerimeter=0;" parent="1" edge="1">
          <mxGeometry width="50" height="50" relative="1" as="geometry">
            <mxPoint x="896.6000000000001" y="513.92" as="sourcePoint" />
            <mxPoint x="897" y="590" as="targetPoint" />
          </mxGeometry>
        </mxCell>
        <mxCell id="YERbZWsGb_3LJ_n3Qa9_-58" value="" style="endArrow=classic;html=1;rounded=0;" parent="1" edge="1">
          <mxGeometry width="50" height="50" relative="1" as="geometry">
            <mxPoint x="640" y="130" as="sourcePoint" />
            <mxPoint x="640" y="170" as="targetPoint" />
          </mxGeometry>
        </mxCell>
        <mxCell id="YERbZWsGb_3LJ_n3Qa9_-61" value="RDBMS&lt;br&gt;&lt;br&gt;BPM IBM&lt;br&gt;&lt;br&gt;FIEL&lt;br&gt;&lt;br&gt;RENAPO&lt;br&gt;&lt;br&gt;IDC&lt;br&gt;&lt;br&gt;Websphere MQ&lt;br&gt;&lt;br&gt;Colas de mensajes&lt;br&gt;&lt;br&gt;Otros sistemas" style="text;html=1;strokeColor=none;fillColor=none;align=center;verticalAlign=middle;whiteSpace=wrap;rounded=0;" parent="1" vertex="1">
          <mxGeometry x="1100" y="190" width="110" height="290" as="geometry" />
        </mxCell>
        <mxCell id="YERbZWsGb_3LJ_n3Qa9_-66" value="" style="endArrow=none;dashed=1;html=1;dashPattern=1 3;strokeWidth=2;rounded=0;endFill=0;startArrow=classicThin;startFill=1;" parent="1" edge="1">
          <mxGeometry width="50" height="50" relative="1" as="geometry">
            <mxPoint x="970" y="437" as="sourcePoint" />
            <mxPoint x="1110" y="437" as="targetPoint" />
          </mxGeometry>
        </mxCell>
        <mxCell id="YERbZWsGb_3LJ_n3Qa9_-67" value="" style="endArrow=none;dashed=1;html=1;dashPattern=1 3;strokeWidth=2;rounded=0;endFill=0;startArrow=classicThin;startFill=1;" parent="1" edge="1">
          <mxGeometry width="50" height="50" relative="1" as="geometry">
            <mxPoint x="740" y="440" as="sourcePoint" />
            <mxPoint x="880" y="440" as="targetPoint" />
          </mxGeometry>
        </mxCell>
        <mxCell id="YERbZWsGb_3LJ_n3Qa9_-68" value="" style="endArrow=none;dashed=1;html=1;dashPattern=1 3;strokeWidth=2;rounded=0;endFill=0;startArrow=classicThin;startFill=1;" parent="1" edge="1">
          <mxGeometry width="50" height="50" relative="1" as="geometry">
            <mxPoint x="740" y="292" as="sourcePoint" />
            <mxPoint x="880" y="292" as="targetPoint" />
          </mxGeometry>
        </mxCell>
        <mxCell id="YERbZWsGb_3LJ_n3Qa9_-69" value="" style="endArrow=none;dashed=1;html=1;dashPattern=1 3;strokeWidth=2;rounded=0;endFill=0;startArrow=classicThin;startFill=1;" parent="1" edge="1">
          <mxGeometry width="50" height="50" relative="1" as="geometry">
            <mxPoint x="970" y="290.14" as="sourcePoint" />
            <mxPoint x="1110" y="290.14" as="targetPoint" />
          </mxGeometry>
        </mxCell>
        <mxCell id="YERbZWsGb_3LJ_n3Qa9_-70" value="" style="endArrow=none;dashed=1;html=1;dashPattern=1 3;strokeWidth=2;rounded=0;endFill=0;startArrow=classicThin;startFill=1;" parent="1" edge="1">
          <mxGeometry width="50" height="50" relative="1" as="geometry">
            <mxPoint x="512" y="325" as="sourcePoint" />
            <mxPoint x="573" y="325" as="targetPoint" />
          </mxGeometry>
        </mxCell>
        <mxCell id="YERbZWsGb_3LJ_n3Qa9_-71" value="" style="endArrow=none;dashed=1;html=1;dashPattern=1 3;strokeWidth=2;rounded=0;endFill=0;startArrow=classicThin;startFill=1;" parent="1" edge="1">
          <mxGeometry width="50" height="50" relative="1" as="geometry">
            <mxPoint x="300" y="325" as="sourcePoint" />
            <mxPoint x="361" y="325" as="targetPoint" />
          </mxGeometry>
        </mxCell>
        <mxCell id="YERbZWsGb_3LJ_n3Qa9_-74" value="" style="endArrow=classic;html=1;rounded=0;entryX=0.518;entryY=0.944;entryDx=0;entryDy=0;entryPerimeter=0;exitX=0.823;exitY=0.4;exitDx=0;exitDy=0;exitPerimeter=0;" parent="1" source="YERbZWsGb_3LJ_n3Qa9_-11" target="YERbZWsGb_3LJ_n3Qa9_-8" edge="1">
          <mxGeometry width="50" height="50" relative="1" as="geometry">
            <mxPoint x="924.64" y="570" as="sourcePoint" />
            <mxPoint x="924.64" y="520" as="targetPoint" />
          </mxGeometry>
        </mxCell>
        <mxCell id="YERbZWsGb_3LJ_n3Qa9_-75" value="" style="endArrow=classicThin;dashed=1;html=1;rounded=0;startArrow=none;startFill=0;endFill=1;" parent="1" edge="1">
          <mxGeometry width="50" height="50" relative="1" as="geometry">
            <mxPoint x="659.5" y="590" as="sourcePoint" />
            <mxPoint x="659.5" y="530" as="targetPoint" />
          </mxGeometry>
        </mxCell>
        <mxCell id="YERbZWsGb_3LJ_n3Qa9_-77" value="" style="endArrow=classicThin;dashed=1;html=1;rounded=0;startArrow=none;startFill=0;endFill=1;" parent="1" edge="1">
          <mxGeometry width="50" height="50" relative="1" as="geometry">
            <mxPoint x="450" y="590" as="sourcePoint" />
            <mxPoint x="450" y="530" as="targetPoint" />
          </mxGeometry>
        </mxCell>
        <mxCell id="YERbZWsGb_3LJ_n3Qa9_-78" value="" style="endArrow=classicThin;dashed=1;html=1;rounded=0;startArrow=none;startFill=0;endFill=1;exitX=0.563;exitY=-0.084;exitDx=0;exitDy=0;exitPerimeter=0;" parent="1" edge="1">
          <mxGeometry width="50" height="50" relative="1" as="geometry">
            <mxPoint x="670.635" y="170.48000000000002" as="sourcePoint" />
            <mxPoint x="670" y="123" as="targetPoint" />
          </mxGeometry>
        </mxCell>
        <mxCell id="YERbZWsGb_3LJ_n3Qa9_-79" value="Servicios de infraestructura" style="text;html=1;strokeColor=none;fillColor=none;align=center;verticalAlign=middle;whiteSpace=wrap;rounded=0;" parent="1" vertex="1">
          <mxGeometry x="602" y="597" width="170" height="20" as="geometry" />
        </mxCell>
        <mxCell id="oxEUmUbdFnQbrGS5UrGR-1" value="" style="rounded=0;whiteSpace=wrap;html=1;" vertex="1" parent="1">
          <mxGeometry x="160" y="630" width="132" height="50" as="geometry" />
        </mxCell>
        <mxCell id="oxEUmUbdFnQbrGS5UrGR-2" value="" style="endArrow=classic;html=1;rounded=0;" edge="1" parent="1">
          <mxGeometry width="50" height="50" relative="1" as="geometry">
            <mxPoint x="232" y="647" as="sourcePoint" />
            <mxPoint x="284" y="646.76" as="targetPoint" />
          </mxGeometry>
        </mxCell>
        <mxCell id="oxEUmUbdFnQbrGS5UrGR-3" value="Request&amp;nbsp;" style="text;html=1;strokeColor=none;fillColor=none;align=center;verticalAlign=middle;whiteSpace=wrap;rounded=0;" vertex="1" parent="1">
          <mxGeometry x="162" y="637" width="50" height="20" as="geometry" />
        </mxCell>
        <mxCell id="oxEUmUbdFnQbrGS5UrGR-4" value="" style="endArrow=classic;html=1;rounded=0;dashed=1;" edge="1" parent="1">
          <mxGeometry width="50" height="50" relative="1" as="geometry">
            <mxPoint x="232" y="666.76" as="sourcePoint" />
            <mxPoint x="282" y="667" as="targetPoint" />
          </mxGeometry>
        </mxCell>
        <mxCell id="oxEUmUbdFnQbrGS5UrGR-5" value="Response" style="text;html=1;strokeColor=none;fillColor=none;align=center;verticalAlign=middle;whiteSpace=wrap;rounded=0;" vertex="1" parent="1">
          <mxGeometry x="160" y="657" width="60" height="20" as="geometry" />
        </mxCell>
      </root>
    </mxGraphModel>
  </diagram>
</mxfile>
